<svg width="24" height="24" viewBox="0 0 24 24" fill="none" xmlns="http://www.w3.org/2000/svg">
<g id="az Azerbaijan">
<g clip-path="url(#clip0_1239_1349)">
<path id="Vector" d="M-3.995 0H28.005V24H-3.995V0Z" fill="#3F9C35"/>
<path id="Vector_2" d="M-3.995 0H28.005V16H-3.995V0Z" fill="#ED2939"/>
<path id="Vector_3" d="M-3.995 0H28.005V8H-3.995V0Z" fill="#00B9E4"/>
<path id="Vector_4" d="M11.2 15.5999C13.1882 15.5999 14.8 13.9881 14.8 11.9999C14.8 10.0117 13.1882 8.3999 11.2 8.3999C9.21175 8.3999 7.59998 10.0117 7.59998 11.9999C7.59998 13.9881 9.21175 15.5999 11.2 15.5999Z" fill="white"/>
<path id="Vector_5" d="M12 15C13.6569 15 15 13.6569 15 12C15 10.3431 13.6569 9 12 9C10.3431 9 9 10.3431 9 12C9 13.6569 10.3431 15 12 15Z" fill="#ED2939"/>
<path id="Vector_6" d="M15.2 10L15.585 11.075L16.615 10.585L16.125 11.62L17.2 12L16.125 12.385L16.615 13.415L15.585 12.925L15.2 14L14.815 12.925L13.785 13.415L14.275 12.385L13.2 12L14.275 11.615L13.785 10.585L14.815 11.075L15.2 10Z" fill="white"/>
</g>
</g>
<defs>
<clipPath id="clip0_1239_1349">
<rect width="24" height="24" rx="12" fill="white"/>
</clipPath>
</defs>
</svg>
