<svg width="24" height="24" viewBox="0 0 24 24" fill="none" xmlns="http://www.w3.org/2000/svg">
<g id="Group">
<path id="Path" d="M14.436 8.24142H17.1802" stroke="#F7F7F1" stroke-width="1.5" stroke-linecap="round" stroke-linejoin="round"/>
<path id="Path_2" d="M13.4316 13.1233H13.4326" stroke="#F7F7F1" stroke-width="1.5" stroke-linecap="round" stroke-linejoin="round"/>
<path id="Path_3" fill-rule="evenodd" clip-rule="evenodd" d="M17.9565 12.9937H13.4326V12.7256C13.4326 11.4134 14.4964 10.3496 15.8086 10.3496V10.3496C17.1208 10.3496 18.1846 11.4134 18.1846 12.7256V12.7656C18.184 12.8914 18.0822 12.9932 17.9565 12.9937V12.9937Z" stroke="#F7F7F1" stroke-width="1.5" stroke-linecap="round" stroke-linejoin="round"/>
<path id="Path_4" d="M13.4316 12.9932V13.1242C13.4314 14.1225 14.0317 15.023 14.9534 15.4068C15.875 15.7906 16.937 15.5823 17.6454 14.8789" stroke="#F7F7F1" stroke-width="1.5" stroke-linecap="round" stroke-linejoin="round"/>
<path id="Path_5" d="M6.12158 11.5004V8.49913C6.12158 8.361 6.23356 8.24902 6.37169 8.24902H8.49857" stroke="#F7F7F1" stroke-width="1.5" stroke-linecap="round" stroke-linejoin="round"/>
<path id="Path_6" fill-rule="evenodd" clip-rule="evenodd" d="M9.12583 11.5C10.2566 11.5 11.1736 12.4161 11.1747 13.5469V13.5469C11.1747 14.09 10.9589 14.6109 10.5749 14.9949C10.1908 15.3789 9.66996 15.5947 9.12683 15.5947H6.26164C6.18461 15.5947 6.12158 15.4827 6.12158 15.3446V11.5H9.12583Z" stroke="#F7F7F1" stroke-width="1.5" stroke-linecap="round" stroke-linejoin="round"/>
<path id="Path_7" fill-rule="evenodd" clip-rule="evenodd" d="M17.0022 21.0036H6.998C4.78795 21.0036 2.99634 19.212 2.99634 17.0019V6.99776C2.99634 4.7877 4.78795 2.99609 6.998 2.99609H17.0022C19.2122 2.99609 21.0038 4.7877 21.0038 6.99776V17.0019C21.0038 19.212 19.2122 21.0036 17.0022 21.0036Z" stroke="#F7F7F1" stroke-width="1.5" stroke-linecap="round" stroke-linejoin="round"/>
<path id="Path_8" d="M8.49878 8.25C9.39639 8.25055 10.1239 8.97807 10.1245 9.87568V9.87568C10.1234 10.7729 9.396 11.4998 8.49878 11.5004" stroke="#F7F7F1" stroke-width="1.5" stroke-linecap="round" stroke-linejoin="round"/>
</g>
</svg>
