<svg width="24" height="24" viewBox="0 0 24 24" fill="none" xmlns="http://www.w3.org/2000/svg">
<g id="Group">
<path id="Path" fill-rule="evenodd" clip-rule="evenodd" d="M7.5 3H16.504C18.987 3 21 5.013 21 7.496V16.505C21 18.987 18.987 21 16.504 21H7.496C5.013 21 3 18.987 3 16.504V7.5C3 5.015 5.015 3 7.5 3V3Z" stroke="#F7F7F1" stroke-width="1.5" stroke-linecap="round" stroke-linejoin="round"/>
<path id="Path_2" d="M8.12012 11.0996V16.4996" stroke="#F7F7F1" stroke-width="1.5" stroke-linecap="round" stroke-linejoin="round"/>
<g id="Group_2">
<path id="Path_3" d="M11.719 16.5006V13.3506C11.719 12.1076 12.726 11.1006 13.969 11.1006V11.1006C15.212 11.1006 16.219 12.1076 16.219 13.3506V16.5006" stroke="#F7F7F1" stroke-width="1.5" stroke-linecap="round" stroke-linejoin="round"/>
<path id="Path_4" d="M8.1179 7.83848C7.9939 7.83848 7.8929 7.93948 7.8939 8.06348C7.8939 8.18748 7.9949 8.28848 8.1189 8.28848C8.2429 8.28848 8.3439 8.18748 8.3439 8.06348C8.3439 7.93848 8.2429 7.83848 8.1179 7.83848" stroke="#F7F7F1" stroke-width="1.5" stroke-linecap="round" stroke-linejoin="round"/>
</g>
</g>
</svg>
