<svg width="79" height="26" viewBox="0 0 79 26" fill="none" xmlns="http://www.w3.org/2000/svg">
<g id="Group">
<path id="Vector" d="M7.40718 0L0 4.33316L7.46607 8.77037L0 13V21.6673L7.40768 26L22.2215 17.5397V8.66684L7.40718 0ZM14.1248 21.1946L7.46607 17.2995V9.50838C7.46607 9.18043 7.8164 8.9754 8.09676 9.13963L14.7555 13.103V20.8258C14.7555 21.1538 14.4051 21.3588 14.1248 21.1946Z" fill="#151515"/>
<g id="Group_2">
<path id="Vector_2" d="M26.3318 17.5399V8.66602H30.1244C32.8848 8.66602 34.5518 10.2935 34.5518 13.1027C34.5518 15.9119 32.8541 17.5394 30.1244 17.5394H26.3318V17.5399ZM30.1244 15.5289C31.5781 15.5289 32.1826 14.4522 32.1826 13.1032C32.1826 11.7542 31.5781 10.6775 30.1244 10.6775H28.6406V15.5289H30.1244Z" fill="#151515"/>
<path id="Vector_3" d="M35.8338 8.66602H39.6628C41.6963 8.66602 43.4308 9.37138 43.4308 11.7109C43.4308 12.9115 42.7895 13.7219 41.727 14.1738L43.5712 17.5399H41.0429L39.4121 14.5573H38.1417V17.5399H35.8333V8.66602H35.8338ZM38.1422 12.7442H39.6628C40.4017 12.7442 41.0616 12.5957 41.0616 11.7109C41.0616 10.826 40.4022 10.6775 39.6628 10.6775H38.1422V12.7442Z" fill="#151515"/>
<path id="Vector_4" d="M44.3037 17.5399L47.8885 8.66602H50.3191L53.9039 17.5399H51.4184L50.8199 15.9808H47.3877L46.7892 17.5399H44.3037ZM48.1145 14.0809H50.0871L49.1041 11.513L48.1145 14.0809Z" fill="#151515"/>
<path id="Vector_5" d="M54.8799 17.5399V8.66602H61.5673V10.677H57.1887V12.2734H61.299V14.1794H57.1887V17.5394H54.8803L54.8799 17.5399Z" fill="#151515"/>
<path id="Vector_6" d="M62.6046 8.66602H70.6782V10.677H67.7955V17.5399H65.4872V10.677H62.6046V8.66602Z" fill="#151515"/>
<path id="Vector_7" d="M72.5829 15.1202C73.3037 15.5532 74.2319 15.7761 75.0684 15.7761C75.612 15.7761 76.6927 15.7205 76.6927 14.9468C76.6927 14.2414 75.5325 14.1486 75.0619 14.0496C73.5292 13.7278 71.7272 13.1153 71.7272 11.2215C71.7272 9.15493 73.3822 8.41846 75.1897 8.41846C76.4602 8.41846 77.6813 8.6291 78.7866 9.29723L77.6752 10.9308C76.9056 10.5906 76.1486 10.4295 75.3115 10.4295C74.8595 10.4295 74.0351 10.5407 74.0351 11.1598C74.0351 11.8902 74.9818 11.9769 75.5068 12.1003C77.0581 12.4655 79 12.9791 79 14.9468C79 17.2057 77.0763 17.7871 75.1892 17.7871C73.9676 17.7871 72.4531 17.5458 71.47 16.7538L72.5814 15.1202H72.5829Z" fill="#151515"/>
</g>
</g>
</svg>
