<svg width="158" height="52" viewBox="0 0 158 52" fill="none" xmlns="http://www.w3.org/2000/svg">
<path d="M14.8144 0L0 8.66633L14.9321 17.5407L0 26V43.3347L14.8154 52L44.4431 35.0795V17.3337L14.8144 0ZM28.2496 42.3891L14.9321 34.599V19.0168C14.9321 18.3609 15.6328 17.9508 16.1935 18.2793L29.5109 26.2061V41.6516C29.5109 42.3075 28.8103 42.7176 28.2496 42.3891Z" fill="#F7F7F1"/>
<path d="M52.6636 35.0794V17.3315H60.2489C65.7696 17.3315 69.1037 20.5865 69.1037 26.2049C69.1037 31.8234 65.7082 35.0783 60.2489 35.0783H52.6636V35.0794ZM60.2489 31.0573C63.1562 31.0573 64.3653 28.904 64.3653 26.206C64.3653 23.5079 63.1562 21.3546 60.2489 21.3546H57.2812V31.0573H60.2489Z" fill="#F7F7F1"/>
<path d="M71.6678 17.3315H79.3256C83.3926 17.3315 86.8616 18.7423 86.8616 23.4212C86.8616 25.8224 85.5791 27.4433 83.454 28.347L87.1425 35.0794H82.0859L78.8243 29.1141H76.2834V35.0794H71.6667V17.3315H71.6678ZM76.2844 25.4878H79.3256C80.8034 25.4878 82.1232 25.191 82.1232 23.4212C82.1232 21.6514 80.8044 21.3546 79.3256 21.3546H76.2844V25.4878Z" fill="#F7F7F1"/>
<path d="M88.6074 35.0794L95.777 17.3315H100.638L107.808 35.0794H102.837L101.64 31.9611H94.7754L93.5784 35.0794H88.6074ZM96.229 28.1614H100.174L98.2082 23.0254L96.229 28.1614Z" fill="#F7F7F1"/>
<path d="M109.76 35.0794V17.3315H123.135V21.3536H114.377V24.5463H122.598V28.3583H114.377V35.0783H109.761L109.76 35.0794Z" fill="#F7F7F1"/>
<path d="M125.209 17.3315H141.356V21.3536H135.591V35.0794H130.975V21.3536H125.209V17.3315Z" fill="#F7F7F1"/>
<path d="M145.166 30.2403C146.608 31.1064 148.464 31.5521 150.137 31.5521C151.224 31.5521 153.386 31.4409 153.386 29.8935C153.386 28.4828 151.065 28.2972 150.124 28.0993C147.059 27.4556 143.455 26.2305 143.455 22.4431C143.455 18.3099 146.765 16.8369 150.38 16.8369C152.92 16.8369 155.363 17.2582 157.573 18.5945L155.351 21.8617C153.811 21.1813 152.297 20.859 150.623 20.859C149.719 20.859 148.07 21.0813 148.07 22.3197C148.07 23.7804 149.964 23.9538 151.014 24.2006C154.116 24.931 158 25.9582 158 29.8935C158 34.4113 154.153 35.5742 150.379 35.5742C147.935 35.5742 144.906 35.0917 142.94 33.5076L145.163 30.2403H145.166Z" fill="#F7F7F1"/>
</svg>
